<?xml version="1.0" encoding="UTF-8"?>
<!DOCTYPE svg PUBLIC "-//W3C//DTD SVG 1.1//EN" "http://www.w3.org/Graphics/SVG/1.1/DTD/svg11.dtd">
<!-- Creator: CorelDRAW 2020 (64-Bit) -->
<svg xmlns="http://www.w3.org/2000/svg" xml:space="preserve" width="32.7211mm" height="6.1355mm" version="1.1" style="shape-rendering:geometricPrecision; text-rendering:geometricPrecision; image-rendering:optimizeQuality; fill-rule:evenodd; clip-rule:evenodd"
viewBox="0 0 1155.41 216.65"
 xmlns:xlink="http://www.w3.org/1999/xlink"
 xmlns:xodm="http://www.corel.com/coreldraw/odm/2003">
 <defs>
  <style type="text/css">
   <![CDATA[
    .fil0 {fill:#1B3061;fill-rule:nonzero}
   ]]>
  </style>
 </defs>
 <g id="Layer_x0020_1">
  <metadata id="CorelCorpID_0Corel-Layer"/>
  <path class="fil0" d="M76.94 216.65c-10.31,0 -20.03,-1 -29.15,-2.94 -9.07,-1.94 -17.59,-4.83 -25.56,-8.72 -7.92,-3.94 -15.35,-8.77 -22.22,-14.6l0 0 18.54 -22.77 0 0c8.07,6.97 16.99,12.26 26.71,15.75 9.72,3.49 20.28,5.23 31.69,5.23 15.35,0 27.26,-2.84 35.73,-8.57 8.47,-5.78 12.7,-13.8 12.7,-24.12l0 -0.15c0,-8.07 -2.14,-14.25 -6.43,-18.53 -4.29,-4.29 -9.87,-7.48 -16.84,-9.57 -6.97,-2.09 -14.55,-3.79 -22.87,-5.18 -7.97,-1.35 -16,-2.94 -24.12,-4.78 -8.12,-1.84 -15.59,-4.78 -22.42,-8.72 -6.83,-3.94 -12.31,-9.62 -16.44,-16.99 -4.14,-7.38 -6.18,-17.29 -6.18,-29.65l0 -0.15c0,-19.73 6.57,-35.03 19.68,-45.89 13.15,-10.86 31.69,-16.29 55.66,-16.29 11.36,0 22.52,1.84 33.38,5.48 10.91,3.64 21.53,9.22 31.84,16.74l0 0 -16.94 23.62 0 0c-8.07,-6.03 -16.09,-10.52 -24.17,-13.4 -8.02,-2.94 -16.05,-4.39 -24.12,-4.39 -14.5,0 -25.81,2.89 -33.83,8.67 -8.02,5.78 -12.01,14 -12.01,24.62l0 0.15c0,7.97 2.29,14.05 6.97,18.23 4.69,4.19 10.81,7.28 18.34,9.27 7.52,2 15.65,3.89 24.32,5.63 7.78,1.54 15.55,3.44 23.32,5.63 7.82,2.14 14.9,5.33 21.28,9.47 6.38,4.14 11.46,9.82 15.3,16.99 3.84,7.22 5.78,16.59 5.78,28.2l0 0.3c0,19.53 -6.83,34.68 -20.43,45.39 -13.65,10.71 -32.79,16.05 -57.5,16.05z"/>
  <polygon id="1" class="fil0" points="224.08,2.19 224.08,214.46 194.28,214.46 194.28,2.19 "/>
  <path id="2" class="fil0" d="M291.94 132.14l0 -28.35 67.86 0c9.77,0 17.54,-3.34 23.42,-10.06 5.93,-6.73 8.87,-15.5 8.87,-26.41l0 0c0,-11.11 -2.94,-19.98 -8.87,-26.71 -5.88,-6.73 -13.65,-10.06 -23.42,-10.06l-67.86 0 0 -28.35 66.87 0c12.86,0 24.02,2.69 33.58,8.13 9.52,5.38 16.94,12.95 22.22,22.67 5.33,9.77 7.97,21.18 7.97,34.33l0 0c0,13.05 -2.64,24.41 -7.97,34.13 -5.28,9.77 -12.71,17.29 -22.22,22.67 -9.57,5.33 -20.73,8.02 -33.58,8.02l-66.87 0zm-15.35 82.32l0 -212.27 29.8 0 0 212.27 -29.8 0z"/>
  <path id="3" class="fil0" d="M429.17 214.46l78.28 -212.27 25.36 0 78.28 212.27 -32.14 0 -58.85 -171.26 -58.8 171.26 -32.14 0zm36.07 -46.59l0 -28.3 111.67 0 0 28.3 -111.67 0z"/>
  <path id="4" class="fil0" d="M660.72 214.46l0 -27.61 57.5 0c15.79,0 26.96,-2.99 33.53,-9.02 6.53,-6.03 9.82,-14 9.82,-23.82l0 -0.45c0,-10.51 -2.79,-18.88 -8.37,-25.16 -5.58,-6.28 -14.8,-9.42 -27.66,-9.42l-64.82 0 0 -26.86 64.82 0c10.96,0 19.28,-2.59 24.87,-7.82 5.63,-5.18 8.42,-12.81 8.42,-22.82l0 0c0,-10.61 -3.14,-18.54 -9.37,-23.82 -6.23,-5.23 -15.55,-7.87 -28.01,-7.87l-60.74 0 0 -27.61 66.12 0c20.93,0 36.48,5.23 46.74,15.65 10.21,10.42 15.3,24.37 15.3,41.91l0 0c0,10.56 -3.09,20.28 -9.32,29.1 -6.23,8.82 -16.05,14.45 -29.35,16.84 13.11,1.95 23.32,7.78 30.6,17.39 7.22,9.62 10.86,20.68 10.86,33.14l0 0.45c0,17.29 -5.58,31.29 -16.79,41.91 -11.21,10.61 -26.36,15.89 -45.54,15.89l-68.61 0zm-17.54 0l0 -212.27 29.65 0 0 212.27 -29.65 0z"/>
  <path id="5" class="fil0" d="M811.35 214.46l78.28 -212.27 25.36 0 78.28 212.27 -32.14 0 -58.85 -171.26 -58.8 171.26 -32.14 0zm36.07 -46.59l0 -28.3 111.67 0 0 28.3 -111.67 0z"/>
  <path id="6" class="fil0" d="M1077.48 216.65c-10.31,0 -20.03,-1 -29.15,-2.94 -9.07,-1.94 -17.59,-4.83 -25.56,-8.72 -7.92,-3.94 -15.35,-8.77 -22.22,-14.6l0 0 18.54 -22.77 0 0c8.07,6.97 16.99,12.26 26.71,15.75 9.72,3.49 20.28,5.23 31.69,5.23 15.35,0 27.26,-2.84 35.73,-8.57 8.47,-5.78 12.7,-13.8 12.7,-24.12l0 -0.15c0,-8.07 -2.14,-14.25 -6.43,-18.53 -4.29,-4.29 -9.87,-7.48 -16.84,-9.57 -6.97,-2.09 -14.55,-3.79 -22.87,-5.18 -7.97,-1.35 -16,-2.94 -24.12,-4.78 -8.12,-1.84 -15.59,-4.78 -22.42,-8.72 -6.83,-3.94 -12.31,-9.62 -16.44,-16.99 -4.14,-7.38 -6.18,-17.29 -6.18,-29.65l0 -0.15c0,-19.73 6.57,-35.03 19.68,-45.89 13.15,-10.86 31.69,-16.29 55.66,-16.29 11.36,0 22.52,1.84 33.38,5.48 10.91,3.64 21.53,9.22 31.84,16.74l0 0 -16.94 23.62 0 0c-8.07,-6.03 -16.09,-10.52 -24.17,-13.4 -8.02,-2.94 -16.05,-4.39 -24.12,-4.39 -14.5,0 -25.81,2.89 -33.83,8.67 -8.02,5.78 -12.01,14 -12.01,24.62l0 0.15c0,7.97 2.29,14.05 6.97,18.23 4.69,4.19 10.81,7.28 18.34,9.27 7.52,2 15.65,3.89 24.32,5.63 7.78,1.54 15.55,3.44 23.32,5.63 7.82,2.14 14.9,5.33 21.28,9.47 6.38,4.14 11.46,9.82 15.3,16.99 3.84,7.22 5.78,16.59 5.78,28.2l0 0.3c0,19.53 -6.83,34.68 -20.43,45.39 -13.65,10.71 -32.79,16.05 -57.5,16.05z"/>
 </g>
</svg>
